<?xml version="1.0" standalone="no"?>
<!DOCTYPE svg PUBLIC "-//W3C//DTD SVG 20010904//EN"
 "http://www.w3.org/TR/2001/REC-SVG-20010904/DTD/svg10.dtd">
<svg version="1.0" xmlns="http://www.w3.org/2000/svg"
 width="180.000000pt" height="119.000000pt" viewBox="0 0 180.000000 119.000000"
 preserveAspectRatio="xMidYMid meet">

<g transform="translate(0.000000,119.000000) scale(0.100000,-0.100000)"
fill="#000000" stroke="none">
<path d="M1668 753 c7 -3 16 -2 19 1 4 3 -2 6 -13 5 -11 0 -14 -3 -6 -6z"/>
<path d="M1707 729 c4 -13 8 -18 11 -10 2 7 -1 18 -6 23 -8 8 -9 4 -5 -13z"/>
<path d="M1645 668 c4 -29 8 -63 11 -75 4 -21 1 -23 -36 -23 -40 0 -44 5 -43
48 1 18 -2 16 -49 -32 -69 -70 -139 -68 -153 4 -3 13 -10 28 -16 34 -9 8 -10
4 -6 -18 4 -22 -4 -41 -31 -80 -43 -61 -59 -79 -43 -48 10 19 9 22 -9 22 -11
0 -20 -4 -20 -8 0 -5 -7 -17 -15 -28 -9 -10 -2 9 15 44 42 86 21 79 -25 -9
-20 -39 -39 -68 -42 -66 -2 3 1 15 7 27 8 15 9 25 2 29 -6 3 -9 24 -7 46 1 25
-3 46 -12 57 -8 9 -19 41 -23 70 l-8 53 -1 -65 c-1 -50 -11 -92 -43 -177 -43
-117 -64 -151 -28 -48 15 45 17 60 8 66 -7 4 -15 6 -19 3 -4 -2 -9 6 -11 18
-3 16 -10 4 -25 -42 l-21 -65 5 48 c4 27 2 52 -3 55 -20 14 -45 62 -32 62 7 0
5 5 -4 13 -9 6 -23 28 -30 47 l-14 34 -1 -54 c-1 -76 -20 -210 -22 -154 -1 29
-5 41 -16 41 -11 0 -15 -13 -16 -46 -2 -81 -16 1 -18 104 -2 83 -3 88 -17 70
-8 -11 -17 -31 -20 -45 -2 -14 -9 -43 -15 -65 -5 -22 -11 -61 -12 -87 -1 -27
-5 -48 -9 -48 -3 0 -12 23 -19 50 -10 37 -24 61 -56 91 -24 22 -41 45 -38 50
4 5 2 9 -4 9 -5 0 -19 16 -31 36 -25 39 -31 38 -36 -3 -8 -57 -22 -128 -23
-115 0 7 -6 10 -11 7 -6 -4 -8 -16 -5 -28 9 -32 -62 100 -76 140 -6 18 -17 33
-25 33 -16 0 -18 -31 -4 -80 13 -46 -4 -66 -44 -51 -14 6 -29 18 -32 26 -4 8
-18 15 -33 15 -15 0 -31 3 -35 7 -3 4 -28 6 -55 4 l-49 -2 -29 50 c-34 61 -53
66 -53 14 0 -54 -11 -66 -54 -61 -20 2 -35 1 -34 -3 2 -3 133 -133 293 -288
l289 -281 256 0 256 0 170 146 c521 450 488 419 452 422 -39 4 -44 11 -53 71
-9 70 -15 81 -36 81 -18 0 -19 -5 -14 -52z m-748 -340 c-2 -13 -4 -3 -4 22 0
25 2 35 4 23 2 -13 2 -33 0 -45z"/>
<path d="M90 700 c0 -5 11 -9 25 -8 14 1 25 6 25 10 0 4 -11 8 -25 8 -14 0
-25 -4 -25 -10z"/>
<path d="M1721 690 c0 -8 2 -32 5 -52 6 -33 10 -38 33 -37 21 1 22 3 5 6 -16
3 -23 16 -31 51 -6 26 -11 40 -12 32z"/>
<path d="M1026 660 c-15 -5 -16 -9 -7 -14 7 -5 18 -3 24 3 14 14 6 20 -17 11z"/>
<path d="M81 634 c0 -11 3 -14 6 -6 3 7 2 16 -1 19 -3 4 -6 -2 -5 -13z"/>
<path d="M45 600 c3 -5 13 -10 21 -10 8 0 14 5 14 10 0 6 -9 10 -21 10 -11 0
-17 -4 -14 -10z"/>
<path d="M208 603 c6 -2 18 -2 25 0 6 3 1 5 -13 5 -14 0 -19 -2 -12 -5z"/>
</g>
</svg>
