<?xml version="1.0" encoding="UTF-8"?>
<!DOCTYPE svg PUBLIC "-//W3C//DTD SVG 1.1//EN" "http://www.w3.org/Graphics/SVG/1.1/DTD/svg11.dtd">
<svg xmlns="http://www.w3.org/2000/svg" version="1.1" width="148px" height="98px" style="shape-rendering:geometricPrecision; text-rendering:geometricPrecision; image-rendering:optimizeQuality; fill-rule:evenodd; clip-rule:evenodd" xmlns:xlink="http://www.w3.org/1999/xlink">
<g><path style="opacity:0.801" fill="#02eb14" d="M 71.5,-0.5 C 72.5,-0.5 73.5,-0.5 74.5,-0.5C 77.498,2.66699 80.3314,6.00033 83,9.5C 83.7961,13.7548 83.6295,17.9215 82.5,22C 85.3177,21.0732 88.3177,20.5732 91.5,20.5C 91.5774,21.7498 92.244,22.5831 93.5,23C 87.8087,23.7058 82.4754,25.2058 77.5,27.5C 78.7168,21.8961 79.7168,16.2294 80.5,10.5C 78.7026,8.86895 77.5359,6.86895 77,4.5C 75.841,5.566 75.0076,5.23267 74.5,3.5C 73.3285,2.65536 71.9952,1.98869 70.5,1.5C 70.8333,0.833333 71.1667,0.166667 71.5,-0.5 Z"/></g>
<g><path style="opacity:1" fill="#66a00d" d="M 77.5,9.5 C 79.5701,15.9329 77.2368,18.4329 70.5,17C 68.8446,15.5557 68.178,13.7224 68.5,11.5C 70.9051,8.48334 73.9051,7.81667 77.5,9.5 Z"/></g>
<g><path style="opacity:1" fill="#01f812" d="M -0.5,6.5 C -0.166667,6.5 0.166667,6.5 0.5,6.5C 1.98859,10.5024 4.48859,13.8358 8,16.5C 9.16057,21.4164 9.82724,26.4164 10,31.5C 11.0491,29.3825 12.5491,27.7158 14.5,26.5C 15.1667,26.5 15.8333,26.5 16.5,26.5C 14.5727,29.7673 12.2394,32.7673 9.5,35.5C 8.88258,35.3893 8.38258,35.056 8,34.5C 7.89504,28.3232 6.89504,22.3232 5,16.5C 4.18405,15.1772 3.01739,14.5106 1.5,14.5C 0.833333,14.1667 0.166667,13.8333 -0.5,13.5C -0.5,11.1667 -0.5,8.83333 -0.5,6.5 Z"/></g>
<g><path style="opacity:1" fill="#34eb77" d="M 70.5,1.5 C 71.9952,1.98869 73.3285,2.65536 74.5,3.5C 71.4969,5.00682 68.8302,7.00682 66.5,9.5C 66.6667,9.83333 66.8333,10.1667 67,10.5C 68.8962,8.47006 71.0629,6.8034 73.5,5.5C 75.188,6.5213 76.5213,7.85463 77.5,9.5C 73.9051,7.81667 70.9051,8.48334 68.5,11.5C 66.7605,15.0808 67.7605,17.7475 71.5,19.5C 71.5762,23.3837 70.9095,27.0504 69.5,30.5C 68.5084,30.3284 67.8417,30.6618 67.5,31.5C 64.9798,28.8344 61.9798,26.6678 58.5,25C 56.0106,24.0589 54.0106,24.5589 52.5,26.5C 51.391,26.5569 50.391,26.8902 49.5,27.5C 50.9454,25.867 52.2787,24.0337 53.5,22C 53.2716,21.6012 52.9382,21.4346 52.5,21.5C 55.3654,20.2172 58.3654,20.2172 61.5,21.5C 60.3996,12.8043 63.3996,6.1376 70.5,1.5 Z"/></g>
<g><path style="opacity:0.575" fill="#2d9c24" d="M 146.5,6.5 C 146.291,7.92167 145.791,9.25501 145,10.5C 137.717,15.693 135.55,22.5264 138.5,31C 137.833,31.6667 137.167,31.6667 136.5,31C 135.614,29.3853 134.614,27.8853 133.5,26.5C 133.248,23.6802 133.748,21.0135 135,18.5C 138.619,14.2335 142.452,10.2335 146.5,6.5 Z"/></g>
<g><path style="opacity:0.809" fill="#249d24" d="M 0.5,6.5 C 7.64344,11.4605 12.3101,18.1271 14.5,26.5C 12.5491,27.7158 11.0491,29.3825 10,31.5C 9.82724,26.4164 9.16057,21.4164 8,16.5C 4.48859,13.8358 1.98859,10.5024 0.5,6.5 Z"/></g>
<g><path style="opacity:1" fill="#a5fcc3" d="M 71.5,19.5 C 72.552,19.3505 73.552,19.5172 74.5,20C 74.3729,22.8729 74.3729,25.7063 74.5,28.5C 73.4479,30.256 71.7812,30.9227 69.5,30.5C 70.9095,27.0504 71.5762,23.3837 71.5,19.5 Z"/></g>
<g><path style="opacity:1" fill="#46e74b" d="M 1.5,14.5 C 3.01739,14.5106 4.18405,15.1772 5,16.5C 6.89504,22.3232 7.89504,28.3232 8,34.5C 8.38258,35.056 8.88258,35.3893 9.5,35.5C 10.5,35.5 11.5,35.5 12.5,35.5C 12.5,36.8333 12.5,38.1667 12.5,39.5C 11.2651,41.017 11.2651,42.6837 12.5,44.5C 11.3875,46.4192 10.0542,48.0858 8.5,49.5C 8.27143,47.567 7.4381,45.9003 6,44.5C 7.90759,36.9696 6.24092,30.3029 1,24.5C 0.457209,21.1322 0.623876,17.7989 1.5,14.5 Z"/></g>
<g><path style="opacity:1" fill="#1eb819" d="M 74.5,3.5 C 75.0076,5.23267 75.841,5.566 77,4.5C 77.5359,6.86895 78.7026,8.86895 80.5,10.5C 79.7168,16.2294 78.7168,21.8961 77.5,27.5C 82.4754,25.2058 87.8087,23.7058 93.5,23C 92.244,22.5831 91.5774,21.7498 91.5,20.5C 95.5294,21.1865 98.5294,23.3532 100.5,27C 103.492,26.4947 105.825,27.6614 107.5,30.5C 107.389,31.1174 107.056,31.6174 106.5,32C 107.823,32.8159 108.489,33.9826 108.5,35.5C 106.16,34.914 103.993,33.914 102,32.5C 101.76,34.8516 100.927,36.8516 99.5,38.5C 94.8366,39.315 92.6699,41.9817 93,46.5C 93.9025,47.7014 95.0692,48.5348 96.5,49C 94.4328,49.5356 92.5994,49.0356 91,47.5C 90.6012,47.7284 90.4346,48.0618 90.5,48.5C 89.3775,46.7116 89.2109,44.7116 90,42.5C 92,40.5 94,38.5 96,36.5C 96.765,34.9343 96.5983,33.6009 95.5,32.5C 94.6791,27.0933 93.0124,26.5933 90.5,31C 88.4567,31.64 86.7901,31.14 85.5,29.5C 86.087,28.2334 86.087,27.2334 85.5,26.5C 82.9875,27.728 80.9875,29.3946 79.5,31.5C 78.078,30.075 76.4113,29.075 74.5,28.5C 74.3729,25.7063 74.3729,22.8729 74.5,20C 73.552,19.5172 72.552,19.3505 71.5,19.5C 67.7605,17.7475 66.7605,15.0808 68.5,11.5C 68.178,13.7224 68.8446,15.5557 70.5,17C 77.2368,18.4329 79.5701,15.9329 77.5,9.5C 76.5213,7.85463 75.188,6.5213 73.5,5.5C 71.0629,6.8034 68.8962,8.47006 67,10.5C 66.8333,10.1667 66.6667,9.83333 66.5,9.5C 68.8302,7.00682 71.4969,5.00682 74.5,3.5 Z"/></g>
<g><path style="opacity:1" fill="#54e96a" d="M 146.5,13.5 C 146.4,17.331 146.233,21.331 146,25.5C 143.283,27.4865 141.783,30.1532 141.5,33.5C 140.362,30.6965 140.195,27.6965 141,24.5C 142,21.5 143,18.5 144,15.5C 144.708,14.6195 145.542,13.9528 146.5,13.5 Z"/></g>
<g><path style="opacity:0.894" fill="#2aa51f" d="M 128.5,27.5 C 127.038,31.0114 126.038,34.6781 125.5,38.5C 125.436,40.5566 126.102,42.2233 127.5,43.5C 128.5,46.8333 129.5,50.1667 130.5,53.5C 128.194,53.0074 125.861,52.6741 123.5,52.5C 124.203,50.9657 124.036,49.299 123,47.5C 119.667,44.9983 116.501,42.3316 113.5,39.5C 111.833,38.1667 110.167,36.8333 108.5,35.5C 113.264,36.139 117.097,38.4724 120,42.5C 122.509,41.347 123.009,39.6803 121.5,37.5C 122.138,33.0444 124.472,29.7111 128.5,27.5 Z"/></g>
<g><path style="opacity:1" fill="#51bf2b" d="M 140.5,34.5 C 143.156,38.2089 143.156,41.8756 140.5,45.5C 138.458,42.6345 137.292,42.9679 137,46.5C 136.721,42.8297 136.888,39.163 137.5,35.5C 136.5,35.5 135.5,35.5 134.5,35.5C 134.682,37.5914 134.348,39.5914 133.5,41.5C 132.635,42.5827 131.635,42.7494 130.5,42C 129.544,38.6064 129.211,35.1064 129.5,31.5C 129.866,30.3054 130.699,29.6387 132,29.5C 133.82,30.6039 135.32,32.1039 136.5,34C 137.793,34.49 139.127,34.6567 140.5,34.5 Z"/></g>
<g><path style="opacity:1" fill="#2fbd0c" d="M 16.5,26.5 C 17.4916,26.3284 18.1583,26.6618 18.5,27.5C 20.4778,30.3056 21.4778,33.4722 21.5,37C 20.976,41.9046 19.6426,46.5712 17.5,51C 17.7549,52.3261 18.4216,53.3261 19.5,54C 18.6919,54.3076 18.0253,54.8076 17.5,55.5C 21.6035,58.229 21.2702,58.8957 16.5,57.5C 16.2273,53.4049 15.2273,49.7383 13.5,46.5C 13.9175,45.7784 14.5842,45.2784 15.5,45C 13.393,43.7365 12.393,41.9032 12.5,39.5C 12.5,38.1667 12.5,36.8333 12.5,35.5C 11.5,35.5 10.5,35.5 9.5,35.5C 12.2394,32.7673 14.5727,29.7673 16.5,26.5 Z"/></g>
<g><path style="opacity:1" fill="#5b8700" d="M 95.5,32.5 C 92.7343,35.9765 89.5677,36.3099 86,33.5C 85.51,32.2068 85.3433,30.8734 85.5,29.5C 86.7901,31.14 88.4567,31.64 90.5,31C 93.0124,26.5933 94.6791,27.0933 95.5,32.5 Z"/></g>
<g><path style="opacity:1" fill="#19f719" d="M 146.5,6.5 C 146.833,6.5 147.167,6.5 147.5,6.5C 147.5,8.83333 147.5,11.1667 147.5,13.5C 147.167,13.5 146.833,13.5 146.5,13.5C 145.542,13.9528 144.708,14.6195 144,15.5C 143,18.5 142,21.5 141,24.5C 140.195,27.6965 140.362,30.6965 141.5,33.5C 141.5,34.1667 141.167,34.5 140.5,34.5C 139.127,34.6567 137.793,34.49 136.5,34C 135.32,32.1039 133.82,30.6039 132,29.5C 130.699,29.6387 129.866,30.3054 129.5,31.5C 128.833,35.5 128.167,39.5 127.5,43.5C 126.102,42.2233 125.436,40.5566 125.5,38.5C 126.038,34.6781 127.038,31.0114 128.5,27.5C 130.042,26.6993 131.708,26.366 133.5,26.5C 134.614,27.8853 135.614,29.3853 136.5,31C 137.167,31.6667 137.833,31.6667 138.5,31C 135.55,22.5264 137.717,15.693 145,10.5C 145.791,9.25501 146.291,7.92167 146.5,6.5 Z"/></g>
<g><path style="opacity:1" fill="#acf5c6" d="M 52.5,21.5 C 52.9382,21.4346 53.2716,21.6012 53.5,22C 52.2787,24.0337 50.9454,25.867 49.5,27.5C 47.0756,29.9203 46.9089,32.587 49,35.5C 51.3333,37.8333 53.6667,40.1667 56,42.5C 56.9411,44.9894 56.4411,46.9894 54.5,48.5C 52.5183,48.9954 50.5183,49.4954 48.5,50C 50.7133,51.6162 53.0466,52.7828 55.5,53.5C 52.6802,53.7525 50.0135,53.2525 47.5,52C 46.6198,50.6439 46.2865,49.1439 46.5,47.5C 48.7354,47.7947 50.7354,47.4614 52.5,46.5C 54.2252,46.1575 54.7252,45.1575 54,43.5C 48.2485,39.6613 45.4151,34.328 45.5,27.5C 46.9197,24.4123 49.253,22.4123 52.5,21.5 Z"/></g>
<g><path style="opacity:0.896" fill="#1eea00" d="M 121.5,37.5 C 123.009,39.6803 122.509,41.347 120,42.5C 117.097,38.4724 113.264,36.139 108.5,35.5C 108.489,33.9826 107.823,32.8159 106.5,32C 107.056,31.6174 107.389,31.1174 107.5,30.5C 108.117,30.3893 108.617,30.056 109,29.5C 111.041,31.7284 113.541,33.2284 116.5,34C 117.337,35.0113 117.67,36.1779 117.5,37.5C 118.833,37.5 120.167,37.5 121.5,37.5 Z"/></g>
<g><path style="opacity:0.984" fill="#12b925" d="M 45.5,27.5 C 45.4151,34.328 48.2485,39.6613 54,43.5C 54.7252,45.1575 54.2252,46.1575 52.5,46.5C 47.9459,42.7001 44.9459,38.0334 43.5,32.5C 36.3278,35.5877 29.9945,39.9211 24.5,45.5C 24.2786,42.7212 24.612,40.0545 25.5,37.5C 26.5,37.5 27.5,37.5 28.5,37.5C 28.33,36.1779 28.6634,35.0113 29.5,34C 32.7656,33.2815 35.599,31.7815 38,29.5C 38.414,29.9574 38.914,30.2907 39.5,30.5C 40.7726,27.4787 42.7726,26.4787 45.5,27.5 Z"/></g>
<g><path style="opacity:1" fill="#0ce71f" d="M 67.5,31.5 C 68.699,38.6979 72.5323,40.3646 79,36.5C 79.4935,34.8659 79.6602,33.1992 79.5,31.5C 80.4345,32.5676 80.7678,33.901 80.5,35.5C 82.7925,35.2436 84.9592,35.5769 87,36.5C 88.9322,40.2322 88.9322,43.8988 87,47.5C 86.7216,46.5842 86.2216,45.9175 85.5,45.5C 86.3235,43.5454 86.4901,41.5454 86,39.5C 84.9887,38.6634 83.8221,38.33 82.5,38.5C 83.2625,37.7321 84.2625,37.2321 85.5,37C 82.9348,36.3911 80.6015,36.8911 78.5,38.5C 75.6085,39.4025 72.6085,39.7359 69.5,39.5C 67.4096,36.1252 64.4096,34.9586 60.5,36C 58.9929,37.4733 58.3262,39.3066 58.5,41.5C 61.0138,47.2139 59.3472,50.3806 53.5,51C 54.2524,50.3292 54.5858,49.4959 54.5,48.5C 56.4411,46.9894 56.9411,44.9894 56,42.5C 53.6667,40.1667 51.3333,37.8333 49,35.5C 46.9089,32.587 47.0756,29.9203 49.5,27.5C 50.391,26.8902 51.391,26.5569 52.5,26.5C 54.0106,24.5589 56.0106,24.0589 58.5,25C 61.9798,26.6678 64.9798,28.8344 67.5,31.5 Z"/></g>
<g><path style="opacity:1" fill="#67a50c" d="M 52.5,26.5 C 55.6852,26.0196 58.5185,26.6863 61,28.5C 61.3403,33.8222 58.8403,35.9888 53.5,35C 49.9861,32.4685 49.6528,29.6352 52.5,26.5 Z"/></g>
<g><path style="opacity:1" fill="#629107" d="M 74.5,28.5 C 76.4113,29.075 78.078,30.075 79.5,31.5C 79.6602,33.1992 79.4935,34.8659 79,36.5C 72.5323,40.3646 68.699,38.6979 67.5,31.5C 67.8417,30.6618 68.5084,30.3284 69.5,30.5C 71.7812,30.9227 73.4479,30.256 74.5,28.5 Z"/></g>
<g><path style="opacity:1" fill="#2af07e" d="M 69.5,39.5 C 68.9627,44.6622 67.9627,49.8288 66.5,55C 67.2266,56.3988 67.7266,57.8988 68,59.5C 69.0113,58.6634 70.1779,58.33 71.5,58.5C 72.3696,60.2737 73.703,61.607 75.5,62.5C 74.5,62.5 73.5,62.5 72.5,62.5C 71.1667,62.5 69.8333,62.5 68.5,62.5C 63.6529,61.3814 58.6529,61.3814 53.5,62.5C 53.9175,61.7784 54.5842,61.2784 55.5,61C 54.9056,60.5357 54.2389,60.369 53.5,60.5C 59.0644,58.1053 63.231,54.1053 66,48.5C 66.6667,45.8333 66.6667,43.1667 66,40.5C 64.5557,38.8446 62.7224,38.178 60.5,38.5C 60.3187,41.3971 60.6521,44.2305 61.5,47C 60.6928,50.3059 58.6928,52.4725 55.5,53.5C 53.0466,52.7828 50.7133,51.6162 48.5,50C 50.5183,49.4954 52.5183,48.9954 54.5,48.5C 54.5858,49.4959 54.2524,50.3292 53.5,51C 59.3472,50.3806 61.0138,47.2139 58.5,41.5C 58.3262,39.3066 58.9929,37.4733 60.5,36C 64.4096,34.9586 67.4096,36.1252 69.5,39.5 Z"/></g>
<g><path style="opacity:1" fill="#02e805" d="M 85.5,29.5 C 85.3433,30.8734 85.51,32.2068 86,33.5C 89.5677,36.3099 92.7343,35.9765 95.5,32.5C 96.5983,33.6009 96.765,34.9343 96,36.5C 94,38.5 92,40.5 90,42.5C 89.2109,44.7116 89.3775,46.7116 90.5,48.5C 92.8144,51.4462 91.8144,52.6129 87.5,52C 85.771,50.2111 85.1043,48.0444 85.5,45.5C 86.2216,45.9175 86.7216,46.5842 87,47.5C 88.9322,43.8988 88.9322,40.2322 87,36.5C 84.9592,35.5769 82.7925,35.2436 80.5,35.5C 80.7678,33.901 80.4345,32.5676 79.5,31.5C 80.9875,29.3946 82.9875,27.728 85.5,26.5C 86.087,27.2334 86.087,28.2334 85.5,29.5 Z"/></g>
<g><path style="opacity:1" fill="#76a900" d="M 43.5,32.5 C 42.5876,33.7382 42.4209,35.0715 43,36.5C 44.6324,38.9334 46.1324,41.4334 47.5,44C 46.7297,45.7748 45.563,47.2748 44,48.5C 43.8724,51.5144 43.8724,54.5144 44,57.5C 42.6667,56.8333 41.3333,56.1667 40,55.5C 39.6667,52.5 39.3333,49.5 39,46.5C 38.5776,44.5743 37.4109,43.5743 35.5,43.5C 33.32,42.2056 31.32,42.5389 29.5,44.5C 29.1667,44.5 28.8333,44.5 28.5,44.5C 27.1667,45.5 25.8333,46.5 24.5,47.5C 24.5,46.8333 24.5,46.1667 24.5,45.5C 29.9945,39.9211 36.3278,35.5877 43.5,32.5 Z"/></g>
<g><path style="opacity:1" fill="#37fe95" d="M 78.5,38.5 C 77.7474,44.7851 77.2474,51.1185 77,57.5C 75.3005,58.4061 73.4672,58.7394 71.5,58.5C 70.1779,58.33 69.0113,58.6634 68,59.5C 67.7266,57.8988 67.2266,56.3988 66.5,55C 67.9627,49.8288 68.9627,44.6622 69.5,39.5C 72.6085,39.7359 75.6085,39.4025 78.5,38.5 Z"/></g>
<g><path style="opacity:0.856" fill="#0af010" d="M 129.5,31.5 C 129.211,35.1064 129.544,38.6064 130.5,42C 131.635,42.7494 132.635,42.5827 133.5,41.5C 134.348,39.5914 134.682,37.5914 134.5,35.5C 135.5,35.5 136.5,35.5 137.5,35.5C 136.888,39.163 136.721,42.8297 137,46.5C 137.292,42.9679 138.458,42.6345 140.5,45.5C 140.119,46.9311 139.119,47.7645 137.5,48C 138.022,48.5613 138.355,49.228 138.5,50C 136.426,57.7883 134.76,65.6216 133.5,73.5C 132.5,72.8333 131.5,72.1667 130.5,71.5C 129.791,70.596 128.791,70.2627 127.5,70.5C 127.737,71.791 127.404,72.791 126.5,73.5C 125.969,71.3763 124.635,69.8763 122.5,69C 123.167,68.6667 123.833,68.3333 124.5,68C 123.437,66.8118 122.103,66.3118 120.5,66.5C 118.337,65.5309 116.004,64.6976 113.5,64C 118.339,64.2196 123.006,64.0529 127.5,63.5C 131.333,62.1696 132.833,59.503 132,55.5C 129.888,59.5978 127.055,60.2644 123.5,57.5C 122.754,56.2638 122.421,54.9305 122.5,53.5C 123.167,53.5 123.5,53.1667 123.5,52.5C 125.861,52.6741 128.194,53.0074 130.5,53.5C 129.5,50.1667 128.5,46.8333 127.5,43.5C 128.167,39.5 128.833,35.5 129.5,31.5 Z"/></g>
<g><path style="opacity:1" fill="#3a840a" d="M 43.5,32.5 C 44.9459,38.0334 47.9459,42.7001 52.5,46.5C 50.7354,47.4614 48.7354,47.7947 46.5,47.5C 46.2865,49.1439 46.6198,50.6439 47.5,52C 50.0135,53.2525 52.6802,53.7525 55.5,53.5C 58.6928,52.4725 60.6928,50.3059 61.5,47C 60.6521,44.2305 60.3187,41.3971 60.5,38.5C 62.7224,38.178 64.5557,38.8446 66,40.5C 66.6667,43.1667 66.6667,45.8333 66,48.5C 63.231,54.1053 59.0644,58.1053 53.5,60.5C 50.0613,60.2529 46.728,60.5863 43.5,61.5C 41.1667,61.5 38.8333,61.5 36.5,61.5C 36.4643,57.5474 37.131,53.714 38.5,50C 38.1598,47.4887 37.1598,45.322 35.5,43.5C 37.4109,43.5743 38.5776,44.5743 39,46.5C 39.3333,49.5 39.6667,52.5 40,55.5C 41.3333,56.1667 42.6667,56.8333 44,57.5C 43.8724,54.5144 43.8724,51.5144 44,48.5C 45.563,47.2748 46.7297,45.7748 47.5,44C 46.1324,41.4334 44.6324,38.9334 43,36.5C 42.4209,35.0715 42.5876,33.7382 43.5,32.5 Z"/></g>
<g><path style="opacity:0.753" fill="#00f508" d="M 12.5,39.5 C 12.393,41.9032 13.393,43.7365 15.5,45C 14.5842,45.2784 13.9175,45.7784 13.5,46.5C 12.7424,52.4323 14.0757,57.7656 17.5,62.5C 17.2077,65.3761 17.2077,68.0428 17.5,70.5C 15.8333,71.1667 14.1667,71.8333 12.5,72.5C 12.2606,70.5328 12.5939,68.6995 13.5,67C 11.4468,61.2887 9.78012,55.4554 8.5,49.5C 10.0542,48.0858 11.3875,46.4192 12.5,44.5C 11.2651,42.6837 11.2651,41.017 12.5,39.5 Z"/></g>
<g><path style="opacity:1" fill="#467400" d="M 108.5,35.5 C 110.167,36.8333 111.833,38.1667 113.5,39.5C 112.069,40.0819 110.736,40.9152 109.5,42C 108.262,42.69 108.262,43.19 109.5,43.5C 105.876,48.5318 105.543,53.8651 108.5,59.5C 103.526,60.3946 98.5259,60.3946 93.5,59.5C 98.9378,57.9866 101.438,54.3199 101,48.5C 99.1741,46.9262 97.0075,46.0929 94.5,46C 97.1998,44.1433 98.8665,41.6433 99.5,38.5C 100.927,36.8516 101.76,34.8516 102,32.5C 103.993,33.914 106.16,34.914 108.5,35.5 Z"/></g>
<g><path style="opacity:1" fill="#427400" d="M 28.5,44.5 C 28.3359,47.1873 28.5026,49.854 29,52.5C 31.5711,54.9756 33.0711,57.9756 33.5,61.5C 29.3452,61.872 25.3452,62.872 21.5,64.5C 19.9623,64.5466 18.9623,63.8799 18.5,62.5C 18.3505,61.448 18.5172,60.448 19,59.5C 22,62.1667 25,62.1667 28,59.5C 28.6667,58.1667 28.6667,56.8333 28,55.5C 26.2201,53.7071 24.3868,52.0404 22.5,50.5C 22.9424,49.2613 23.6091,48.2613 24.5,47.5C 25.8333,46.5 27.1667,45.5 28.5,44.5 Z"/></g>
<g><path style="opacity:1" fill="#6b9606" d="M 36.5,52.5 C 31.5216,53.9957 29.5216,51.9957 30.5,46.5C 31.209,45.596 32.209,45.2627 33.5,45.5C 33.3433,46.8734 33.51,48.2068 34,49.5C 35.417,50.0779 36.2504,51.0779 36.5,52.5 Z"/></g>
<g><path style="opacity:1" fill="#04f023" d="M 82.5,38.5 C 78.431,46.8009 80.431,53.4676 88.5,58.5C 88.5,59.5 88.5,60.5 88.5,61.5C 85.1226,61.0679 82.1226,61.7345 79.5,63.5C 78.1667,63.1667 76.8333,62.8333 75.5,62.5C 73.703,61.607 72.3696,60.2737 71.5,58.5C 73.4672,58.7394 75.3005,58.4061 77,57.5C 77.2474,51.1185 77.7474,44.7851 78.5,38.5C 80.6015,36.8911 82.9348,36.3911 85.5,37C 84.2625,37.2321 83.2625,37.7321 82.5,38.5 Z"/></g>
<g><path style="opacity:1" fill="#396200" d="M 113.5,39.5 C 116.501,42.3316 119.667,44.9983 123,47.5C 124.036,49.299 124.203,50.9657 123.5,52.5C 123.5,53.1667 123.167,53.5 122.5,53.5C 120.11,53.6848 119.11,55.0182 119.5,57.5C 119.437,59.5139 120.103,61.1806 121.5,62.5C 118.813,62.6641 116.146,62.4974 113.5,62C 112.978,61.4387 112.645,60.772 112.5,60C 115.289,56.4214 117.289,52.4214 118.5,48C 118.478,45.8171 117.478,44.3171 115.5,43.5C 113.611,42.2584 111.611,42.2584 109.5,43.5C 108.262,43.19 108.262,42.69 109.5,42C 110.736,40.9152 112.069,40.0819 113.5,39.5 Z"/></g>
<g><path style="opacity:1" fill="#0a9f12" d="M 18.5,27.5 C 22.63,29.5219 24.9633,32.8552 25.5,37.5C 24.612,40.0545 24.2786,42.7212 24.5,45.5C 24.5,46.1667 24.5,46.8333 24.5,47.5C 23.6091,48.2613 22.9424,49.2613 22.5,50.5C 24.3868,52.0404 26.2201,53.7071 28,55.5C 28.6667,56.8333 28.6667,58.1667 28,59.5C 25,62.1667 22,62.1667 19,59.5C 18.5172,60.448 18.3505,61.448 18.5,62.5C 18.1667,62.5 17.8333,62.5 17.5,62.5C 14.0757,57.7656 12.7424,52.4323 13.5,46.5C 15.2273,49.7383 16.2273,53.4049 16.5,57.5C 21.2702,58.8957 21.6035,58.229 17.5,55.5C 18.0253,54.8076 18.6919,54.3076 19.5,54C 18.4216,53.3261 17.7549,52.3261 17.5,51C 19.6426,46.5712 20.976,41.9046 21.5,37C 21.4778,33.4722 20.4778,30.3056 18.5,27.5 Z"/></g>
<g><path style="opacity:1" fill="#1b8c00" d="M 82.5,38.5 C 83.8221,38.33 84.9887,38.6634 86,39.5C 86.4901,41.5454 86.3235,43.5454 85.5,45.5C 85.1043,48.0444 85.771,50.2111 87.5,52C 91.8144,52.6129 92.8144,51.4462 90.5,48.5C 90.4346,48.0618 90.6012,47.7284 91,47.5C 92.5994,49.0356 94.4328,49.5356 96.5,49C 95.0692,48.5348 93.9025,47.7014 93,46.5C 92.6699,41.9817 94.8366,39.315 99.5,38.5C 98.8665,41.6433 97.1998,44.1433 94.5,46C 97.0075,46.0929 99.1741,46.9262 101,48.5C 101.438,54.3199 98.9378,57.9866 93.5,59.5C 91.7085,59.634 90.0418,59.3007 88.5,58.5C 80.431,53.4676 78.431,46.8009 82.5,38.5 Z"/></g>
<g><path style="opacity:1" fill="#2d8f09" d="M 115.5,43.5 C 114.761,43.369 114.094,43.5357 113.5,44C 115.758,46.7249 116.091,49.7249 114.5,53C 110.954,53.7929 109.12,52.2929 109,48.5C 108.563,52.6227 109.063,56.6227 110.5,60.5C 107.921,61.2276 105.254,61.7276 102.5,62C 104.746,63.0395 106.913,64.2062 109,65.5C 109.828,70.202 109.662,74.8687 108.5,79.5C 107.832,77.0312 107.165,74.6979 106.5,72.5C 107.09,70.5831 107.09,68.4164 106.5,66C 103.066,65.7535 99.7332,66.2535 96.5,67.5C 97.3984,66.8423 98.3984,66.1757 99.5,65.5C 96.1518,64.7125 92.8185,63.8792 89.5,63C 92.5,62.6667 95.5,62.3333 98.5,62C 96.8251,61.0147 95.1585,60.1814 93.5,59.5C 98.5259,60.3946 103.526,60.3946 108.5,59.5C 105.543,53.8651 105.876,48.5318 109.5,43.5C 111.611,42.2584 113.611,42.2584 115.5,43.5 Z"/></g>
<g><path style="opacity:1" fill="#03b600" d="M 115.5,43.5 C 117.478,44.3171 118.478,45.8171 118.5,48C 117.289,52.4214 115.289,56.4214 112.5,60C 112.645,60.772 112.978,61.4387 113.5,62C 116.146,62.4974 118.813,62.6641 121.5,62.5C 123.265,63.4614 125.265,63.7947 127.5,63.5C 123.006,64.0529 118.339,64.2196 113.5,64C 116.004,64.6976 118.337,65.5309 120.5,66.5C 118.052,67.4731 115.385,67.8064 112.5,67.5C 112.803,72.43 112.469,77.2633 111.5,82C 112.737,82.2321 113.737,82.7321 114.5,83.5C 112.571,83.7692 110.905,83.2692 109.5,82C 110.48,74.9213 110.813,67.7546 110.5,60.5C 109.063,56.6227 108.563,52.6227 109,48.5C 109.12,52.2929 110.954,53.7929 114.5,53C 116.091,49.7249 115.758,46.7249 113.5,44C 114.094,43.5357 114.761,43.369 115.5,43.5 Z"/></g>
<g><path style="opacity:1" fill="#198600" d="M 122.5,53.5 C 122.421,54.9305 122.754,56.2638 123.5,57.5C 127.055,60.2644 129.888,59.5978 132,55.5C 132.833,59.503 131.333,62.1696 127.5,63.5C 125.265,63.7947 123.265,63.4614 121.5,62.5C 120.103,61.1806 119.437,59.5139 119.5,57.5C 119.11,55.0182 120.11,53.6848 122.5,53.5 Z"/></g>
<g><path style="opacity:1" fill="#c7f9d6" d="M 53.5,60.5 C 54.2389,60.369 54.9056,60.5357 55.5,61C 54.5842,61.2784 53.9175,61.7784 53.5,62.5C 50.1667,62.5 46.8333,62.5 43.5,62.5C 43.5,62.1667 43.5,61.8333 43.5,61.5C 46.728,60.5863 50.0613,60.2529 53.5,60.5 Z"/></g>
<g><path style="opacity:1" fill="#00a200" d="M 110.5,60.5 C 110.813,67.7546 110.48,74.9213 109.5,82C 110.905,83.2692 112.571,83.7692 114.5,83.5C 116.042,84.3007 117.708,84.634 119.5,84.5C 112.687,85.4912 105.687,85.8245 98.5,85.5C 98.1583,84.6618 97.4916,84.3284 96.5,84.5C 94.7078,83.6909 92.7078,83.1909 90.5,83C 91.4158,82.7216 92.0825,82.2216 92.5,81.5C 97.1191,80.6864 101.786,80.3531 106.5,80.5C 106.5,77.8333 106.5,75.1667 106.5,72.5C 107.165,74.6979 107.832,77.0312 108.5,79.5C 109.662,74.8687 109.828,70.202 109,65.5C 106.913,64.2062 104.746,63.0395 102.5,62C 105.254,61.7276 107.921,61.2276 110.5,60.5 Z"/></g>
<g><path style="opacity:1" fill="#2ec428" d="M 68.5,62.5 C 62.7181,64.3559 56.7181,65.0226 50.5,64.5C 48.143,70.8136 49.8097,72.4802 55.5,69.5C 57.5962,70.6197 57.9295,72.1197 56.5,74C 54.3435,74.0781 52.3435,74.2448 50.5,74.5C 51.3094,76.0709 51.6427,77.7376 51.5,79.5C 48.3095,79.5592 45.1429,79.8926 42,80.5C 39.9658,80.6464 38.2991,79.9797 37,78.5C 36.3333,74.1667 36.3333,69.8333 37,65.5C 39.0454,64.0735 41.2121,63.0735 43.5,62.5C 46.8333,62.5 50.1667,62.5 53.5,62.5C 58.6529,61.3814 63.6529,61.3814 68.5,62.5 Z"/></g>
<g><path style="opacity:1" fill="#0adc05" d="M 88.5,58.5 C 90.0418,59.3007 91.7085,59.634 93.5,59.5C 95.1585,60.1814 96.8251,61.0147 98.5,62C 95.5,62.3333 92.5,62.6667 89.5,63C 92.8185,63.8792 96.1518,64.7125 99.5,65.5C 98.3984,66.1757 97.3984,66.8423 96.5,67.5C 94.3421,68.8555 92.3421,70.5221 90.5,72.5C 92.1353,73.6808 93.802,73.6808 95.5,72.5C 95.8333,73 96.1667,73.5 96.5,74C 95.3047,75.5325 95.3047,77.0325 96.5,78.5C 94.8164,79.1497 93.4831,80.1497 92.5,81.5C 92.0825,82.2216 91.4158,82.7216 90.5,83C 92.7078,83.1909 94.7078,83.6909 96.5,84.5C 92.6249,84.9155 88.9582,84.4155 85.5,83C 87.6067,80.4938 88.4401,77.6605 88,74.5C 86.2806,76.5571 84.2806,78.2237 82,79.5C 81,78.8333 80,78.1667 79,77.5C 76.2305,78.3479 73.3971,78.6813 70.5,78.5C 68.4832,77.4706 66.4832,76.4706 64.5,75.5C 62.3675,70.4141 63.7008,66.7474 68.5,64.5C 68.5,64.8333 68.5,65.1667 68.5,65.5C 67.5,65.8333 66.8333,66.5 66.5,67.5C 64.0013,70.1215 64.3346,72.6215 67.5,75C 70.3508,76.2886 73.3508,76.7886 76.5,76.5C 83.4734,75.5647 85.3068,71.8981 82,65.5C 81.0053,64.9341 80.172,64.2674 79.5,63.5C 82.1226,61.7345 85.1226,61.0679 88.5,61.5C 88.5,60.5 88.5,59.5 88.5,58.5 Z"/></g>
<g><path style="opacity:1" fill="#d3f5cd" d="M 68.5,62.5 C 69.8333,62.5 71.1667,62.5 72.5,62.5C 73.9664,64.6349 73.7998,66.6349 72,68.5C 70.2714,68.0257 69.1047,67.0257 68.5,65.5C 68.5,65.1667 68.5,64.8333 68.5,64.5C 68.5,63.8333 68.5,63.1667 68.5,62.5 Z"/></g>
<g><path style="opacity:1" fill="#33b703" d="M 106.5,72.5 C 106.5,75.1667 106.5,77.8333 106.5,80.5C 101.786,80.3531 97.1191,80.6864 92.5,81.5C 93.4831,80.1497 94.8164,79.1497 96.5,78.5C 95.3047,77.0325 95.3047,75.5325 96.5,74C 96.1667,73.5 95.8333,73 95.5,72.5C 93.802,73.6808 92.1353,73.6808 90.5,72.5C 92.3421,70.5221 94.3421,68.8555 96.5,67.5C 99.7332,66.2535 103.066,65.7535 106.5,66C 107.09,68.4164 107.09,70.5831 106.5,72.5 Z"/></g>
<g><path style="opacity:1" fill="#72af0c" d="M 72.5,62.5 C 73.5,62.5 74.5,62.5 75.5,62.5C 76.8333,62.8333 78.1667,63.1667 79.5,63.5C 80.172,64.2674 81.0053,64.9341 82,65.5C 85.3068,71.8981 83.4734,75.5647 76.5,76.5C 78.1032,75.4036 79.6032,74.0703 81,72.5C 81.7975,70.7412 81.6309,69.0745 80.5,67.5C 78.973,73.1902 75.3063,75.0236 69.5,73C 68.2423,71.2591 67.2423,69.4258 66.5,67.5C 66.8333,66.5 67.5,65.8333 68.5,65.5C 69.1047,67.0257 70.2714,68.0257 72,68.5C 73.7998,66.6349 73.9664,64.6349 72.5,62.5 Z"/></g>
<g><path style="opacity:1" fill="#32ca0a" d="M 120.5,66.5 C 122.103,66.3118 123.437,66.8118 124.5,68C 123.833,68.3333 123.167,68.6667 122.5,69C 124.635,69.8763 125.969,71.3763 126.5,73.5C 125.035,72.8774 123.369,72.8774 121.5,73.5C 119.956,73.2104 118.623,72.5437 117.5,71.5C 116.571,72.6888 116.238,74.0222 116.5,75.5C 117.197,77.5346 117.197,79.868 116.5,82.5C 117.602,83.1757 118.602,83.8423 119.5,84.5C 117.708,84.634 116.042,84.3007 114.5,83.5C 113.737,82.7321 112.737,82.2321 111.5,82C 112.469,77.2633 112.803,72.43 112.5,67.5C 115.385,67.8064 118.052,67.4731 120.5,66.5 Z"/></g>
<g><path style="opacity:1" fill="#3eaa0e" d="M 33.5,61.5 C 32.9423,62.7899 31.9423,63.6232 30.5,64C 32.2705,64.5354 32.6039,65.3687 31.5,66.5C 29.4595,67.2357 27.4595,68.0691 25.5,69C 28.2749,71.3799 28.9416,74.2133 27.5,77.5C 25.2324,78.5443 22.8991,78.711 20.5,78C 18.9632,76.8904 18.2965,75.3904 18.5,73.5C 18.4142,72.5041 18.7476,71.6708 19.5,71C 18.9056,70.5357 18.2389,70.369 17.5,70.5C 17.2077,68.0428 17.2077,65.3761 17.5,62.5C 17.8333,62.5 18.1667,62.5 18.5,62.5C 18.9623,63.8799 19.9623,64.5466 21.5,64.5C 25.3452,62.872 29.3452,61.872 33.5,61.5 Z"/></g>
<g><path style="opacity:1" fill="#41f390" d="M 17.5,70.5 C 18.2389,70.369 18.9056,70.5357 19.5,71C 18.7476,71.6708 18.4142,72.5041 18.5,73.5C 17.4966,75.4874 17.4966,77.654 18.5,80C 18.6134,81.6991 17.9468,82.8658 16.5,83.5C 15.2921,84.2341 13.9587,84.5674 12.5,84.5C 13.8333,80.5 13.8333,76.5 12.5,72.5C 14.1667,71.8333 15.8333,71.1667 17.5,70.5 Z"/></g>
<g><path style="opacity:1" fill="#507a00" d="M 66.5,67.5 C 67.2423,69.4258 68.2423,71.2591 69.5,73C 75.3063,75.0236 78.973,73.1902 80.5,67.5C 81.6309,69.0745 81.7975,70.7412 81,72.5C 79.6032,74.0703 78.1032,75.4036 76.5,76.5C 73.3508,76.7886 70.3508,76.2886 67.5,75C 64.3346,72.6215 64.0013,70.1215 66.5,67.5 Z"/></g>
<g><path style="opacity:1" fill="#5cf79d" d="M 35.5,43.5 C 37.1598,45.322 38.1598,47.4887 38.5,50C 37.131,53.714 36.4643,57.5474 36.5,61.5C 38.8333,61.5 41.1667,61.5 43.5,61.5C 43.5,61.8333 43.5,62.1667 43.5,62.5C 41.2121,63.0735 39.0454,64.0735 37,65.5C 36.3333,69.8333 36.3333,74.1667 37,78.5C 38.2991,79.9797 39.9658,80.6464 42,80.5C 45.1429,79.8926 48.3095,79.5592 51.5,79.5C 51.6427,77.7376 51.3094,76.0709 50.5,74.5C 52.3435,74.2448 54.3435,74.0781 56.5,74C 57.9295,72.1197 57.5962,70.6197 55.5,69.5C 49.8097,72.4802 48.143,70.8136 50.5,64.5C 56.7181,65.0226 62.7181,64.3559 68.5,62.5C 68.5,63.1667 68.5,63.8333 68.5,64.5C 63.7008,66.7474 62.3675,70.4141 64.5,75.5C 62.8947,74.0313 62.3947,74.3646 63,76.5C 64.5429,78.3783 66.3762,79.8783 68.5,81C 61.2009,82.0359 53.8675,82.5359 46.5,82.5C 42.8333,82.5 39.1667,82.5 35.5,82.5C 35.2162,72.4478 35.5496,62.4478 36.5,52.5C 36.2504,51.0779 35.417,50.0779 34,49.5C 33.51,48.2068 33.3433,46.8734 33.5,45.5C 32.209,45.2627 31.209,45.596 30.5,46.5C 29.6618,46.1583 29.3284,45.4916 29.5,44.5C 31.32,42.5389 33.32,42.2056 35.5,43.5 Z"/></g>
<g><path style="opacity:1" fill="#598700" d="M 126.5,73.5 C 125.826,78.1514 123.159,79.6514 118.5,78C 117.619,77.2917 116.953,76.4584 116.5,75.5C 116.238,74.0222 116.571,72.6888 117.5,71.5C 118.623,72.5437 119.956,73.2104 121.5,73.5C 123.369,72.8774 125.035,72.8774 126.5,73.5 Z"/></g>
<g><path style="opacity:0.827" fill="#32f984" d="M 130.5,71.5 C 131.5,72.1667 132.5,72.8333 133.5,73.5C 133.5,77.1667 133.5,80.8333 133.5,84.5C 132.417,84.4606 131.417,84.1272 130.5,83.5C 129.191,79.3507 129.191,75.3507 130.5,71.5 Z"/></g>
<g><path style="opacity:1" fill="#03f220" d="M 96.5,84.5 C 97.4916,84.3284 98.1583,84.6618 98.5,85.5C 97.8333,85.5 97.1667,85.5 96.5,85.5C 88.9809,85.825 81.6476,85.4916 74.5,84.5C 70.0181,83.6745 65.3514,83.1745 60.5,83C 63.8333,82.6667 67.1667,82.3333 70.5,82C 69.3157,80.8545 69.3157,79.6879 70.5,78.5C 73.3971,78.6813 76.2305,78.3479 79,77.5C 80,78.1667 81,78.8333 82,79.5C 84.2806,78.2237 86.2806,76.5571 88,74.5C 88.4401,77.6605 87.6067,80.4938 85.5,83C 88.9582,84.4155 92.6249,84.9155 96.5,84.5 Z"/></g>
<g><path style="opacity:1" fill="#0fd52c" d="M 28.5,44.5 C 28.8333,44.5 29.1667,44.5 29.5,44.5C 29.3284,45.4916 29.6618,46.1583 30.5,46.5C 29.5216,51.9957 31.5216,53.9957 36.5,52.5C 35.5496,62.4478 35.2162,72.4478 35.5,82.5C 31.1436,83.7738 26.6436,83.7738 22,82.5C 20.6238,84.047 19.1238,85.3803 17.5,86.5C 16.828,87.2674 15.9947,87.9341 15,88.5C 14.8333,88.1667 14.6667,87.8333 14.5,87.5C 15.6302,86.3777 16.2969,85.0443 16.5,83.5C 17.9468,82.8658 18.6134,81.6991 18.5,80C 17.4966,77.654 17.4966,75.4874 18.5,73.5C 18.2965,75.3904 18.9632,76.8904 20.5,78C 22.8991,78.711 25.2324,78.5443 27.5,77.5C 28.9416,74.2133 28.2749,71.3799 25.5,69C 27.4595,68.0691 29.4595,67.2357 31.5,66.5C 32.6039,65.3687 32.2705,64.5354 30.5,64C 31.9423,63.6232 32.9423,62.7899 33.5,61.5C 33.0711,57.9756 31.5711,54.9756 29,52.5C 28.5026,49.854 28.3359,47.1873 28.5,44.5 Z"/></g>
<g><path style="opacity:1" fill="#02a113" d="M 35.5,82.5 C 39.1667,82.5 42.8333,82.5 46.5,82.5C 45.7375,83.2679 44.7375,83.7679 43.5,84C 34.8354,84.9447 26.1687,85.778 17.5,86.5C 19.1238,85.3803 20.6238,84.047 22,82.5C 26.6436,83.7738 31.1436,83.7738 35.5,82.5 Z"/></g>
<g><path style="opacity:1" fill="#5bda92" d="M 74.5,84.5 C 81.6476,85.4916 88.9809,85.825 96.5,85.5C 101.167,86.1667 105.833,86.8333 110.5,87.5C 89.5093,86.7272 68.5093,86.3938 47.5,86.5C 47.9175,85.7784 48.5842,85.2784 49.5,85C 57.8267,84.5003 66.16,84.3336 74.5,84.5 Z"/></g>
<g><path style="opacity:1" fill="#09e71e" d="M 130.5,71.5 C 129.191,75.3507 129.191,79.3507 130.5,83.5C 131.417,84.1272 132.417,84.4606 133.5,84.5C 133.664,87.1873 133.497,89.854 133,92.5C 131.989,93.3366 130.822,93.67 129.5,93.5C 132.098,92.5278 132.098,91.5278 129.5,90.5C 128.292,89.7659 126.959,89.4326 125.5,89.5C 120.938,88.2043 116.271,87.5376 111.5,87.5C 111.167,87.5 110.833,87.5 110.5,87.5C 105.833,86.8333 101.167,86.1667 96.5,85.5C 97.1667,85.5 97.8333,85.5 98.5,85.5C 105.687,85.8245 112.687,85.4912 119.5,84.5C 118.602,83.8423 117.602,83.1757 116.5,82.5C 117.197,79.868 117.197,77.5346 116.5,75.5C 116.953,76.4584 117.619,77.2917 118.5,78C 123.159,79.6514 125.826,78.1514 126.5,73.5C 127.404,72.791 127.737,71.791 127.5,70.5C 128.791,70.2627 129.791,70.596 130.5,71.5 Z"/></g>
<g><path style="opacity:1" fill="#10df34" d="M 64.5,75.5 C 66.4832,76.4706 68.4832,77.4706 70.5,78.5C 69.3157,79.6879 69.3157,80.8545 70.5,82C 67.1667,82.3333 63.8333,82.6667 60.5,83C 65.3514,83.1745 70.0181,83.6745 74.5,84.5C 66.16,84.3336 57.8267,84.5003 49.5,85C 48.5842,85.2784 47.9175,85.7784 47.5,86.5C 43.8455,86.9422 40.1788,87.2756 36.5,87.5C 32.7657,87.3227 29.0991,87.6561 25.5,88.5C 22.3033,88.4054 19.3033,89.0721 16.5,90.5C 15.375,91.3478 15.375,92.3478 16.5,93.5C 14.5891,93.4257 13.4224,92.4257 13,90.5C 12.5045,88.5273 12.3379,86.5273 12.5,84.5C 13.9587,84.5674 15.2921,84.2341 16.5,83.5C 16.2969,85.0443 15.6302,86.3777 14.5,87.5C 14.6667,87.8333 14.8333,88.1667 15,88.5C 15.9947,87.9341 16.828,87.2674 17.5,86.5C 26.1687,85.778 34.8354,84.9447 43.5,84C 44.7375,83.7679 45.7375,83.2679 46.5,82.5C 53.8675,82.5359 61.2009,82.0359 68.5,81C 66.3762,79.8783 64.5429,78.3783 63,76.5C 62.3947,74.3646 62.8947,74.0313 64.5,75.5 Z"/></g>
<g><path style="opacity:1" fill="#007903" d="M 47.5,86.5 C 68.5093,86.3938 89.5093,86.7272 110.5,87.5C 110.833,87.5 111.167,87.5 111.5,87.5C 112.952,88.3019 114.618,88.8019 116.5,89C 87.1667,89.6667 57.8333,89.6667 28.5,89C 31.3647,88.8171 34.0314,88.3171 36.5,87.5C 40.1788,87.2756 43.8455,86.9422 47.5,86.5 Z"/></g>
<g><path style="opacity:1" fill="#008e03" d="M 36.5,87.5 C 34.0314,88.3171 31.3647,88.8171 28.5,89C 57.8333,89.6667 87.1667,89.6667 116.5,89C 114.618,88.8019 112.952,88.3019 111.5,87.5C 116.271,87.5376 120.938,88.2043 125.5,89.5C 91.0024,90.6643 56.3358,90.8309 21.5,90C 23.0581,89.79 24.3915,89.29 25.5,88.5C 29.0991,87.6561 32.7657,87.3227 36.5,87.5 Z"/></g>
<g><path style="opacity:1" fill="#009a00" d="M 25.5,88.5 C 24.3915,89.29 23.0581,89.79 21.5,90C 56.3358,90.8309 91.0024,90.6643 125.5,89.5C 126.959,89.4326 128.292,89.7659 129.5,90.5C 91.8333,91.8333 54.1667,91.8333 16.5,90.5C 19.3033,89.0721 22.3033,88.4054 25.5,88.5 Z"/></g>
<g><path style="opacity:1" fill="#0cb102" d="M 16.5,90.5 C 54.1667,91.8333 91.8333,91.8333 129.5,90.5C 132.098,91.5278 132.098,92.5278 129.5,93.5C 128.833,93.8333 128.167,94.1667 127.5,94.5C 91.5,93.1667 55.5,93.1667 19.5,94.5C 18.391,94.4431 17.391,94.1098 16.5,93.5C 15.375,92.3478 15.375,91.3478 16.5,90.5 Z"/></g>
<g><path style="opacity:0.988" fill="#37ca1a" d="M 19.5,94.5 C 55.5,93.1667 91.5,93.1667 127.5,94.5C 123.524,95.2952 119.524,95.9619 115.5,96.5C 115.389,95.8826 115.056,95.3826 114.5,95C 84.3305,94.1695 54.3305,94.3361 24.5,95.5C 22.7839,95.3713 21.1172,95.038 19.5,94.5 Z"/></g>
<g><path style="opacity:1" fill="#4aec41" d="M 24.5,95.5 C 54.3305,94.3361 84.3305,94.1695 114.5,95C 115.056,95.3826 115.389,95.8826 115.5,96.5C 112.941,96.1984 110.607,96.5318 108.5,97.5C 84.8333,97.5 61.1667,97.5 37.5,97.5C 33.3268,96.6424 28.9935,95.9758 24.5,95.5 Z"/></g>
</svg>
